HIERARCHY
ROOT Pelvis
{
	OFFSET 0.000000 0.000000 0.000000
	CHANNELS 6 Xposition Yposition Zposition Xrotation Yrotation Zrotation
	JOINT LeftUpLeg_virtual
	{
		OFFSET 0.000000 0.000000 0.000000
		CHANNELS 3 Xrotation Yrotation Zrotation
		JOINT LeftUpLeg
		{
			OFFSET 18.735201 -5.666702 -4.541200
			CHANNELS 3 Xrotation Yrotation Zrotation
			JOINT LeftLeg
			{
				OFFSET -0.021200 -31.938179 0.493100
				CHANNELS 3 Xrotation Yrotation Zrotation
				JOINT LeftFoot
				{
					OFFSET 0.021200 -31.938179 -4.336299
					CHANNELS 3 Xrotation Yrotation Zrotation
					JOINT LeftToeBase
					{
						OFFSET 0.943001 -26.722000 15.023500
						CHANNELS 3 Xrotation Yrotation Zrotation
						End Site
						{
							OFFSET 0 0 0
						}
					}
				}
			}
		}
	}
	JOINT RightUpLeg_virtual
	{
		OFFSET 0.000000 0.000000 0.000000
		CHANNELS 3 Xrotation Yrotation Zrotation
		JOINT RightUpLeg
		{
			OFFSET -18.735201 -5.666702 -4.541200
			CHANNELS 3 Xrotation Yrotation Zrotation
			JOINT RightLeg
			{
				OFFSET 0.018946 -31.938133 0.493100
				CHANNELS 3 Xrotation Yrotation Zrotation
				JOINT RightFoot
				{
					OFFSET -0.018946 -31.938126 -4.336299
					CHANNELS 3 Xrotation Yrotation Zrotation
					JOINT RightToeBase
					{
						OFFSET -0.943001 -26.722004 15.023500
						CHANNELS 3 Xrotation Yrotation Zrotation
						End Site
						{
							OFFSET 0 0 0
						}
					}
				}
			}
		}
	}
	JOINT Hips_virtual
	{
		OFFSET 0.000000 0.000000 0.000000
		CHANNELS 3 Xrotation Yrotation Zrotation
		JOINT Hips
		{
			OFFSET -0.000000 -0.000000 -0.000000
			CHANNELS 3 Xrotation Yrotation Zrotation
			JOINT Spine
			{
				OFFSET 0.000000 10.199997 -0.299500
				CHANNELS 3 Xrotation Yrotation Zrotation
				JOINT Spine1
				{
					OFFSET 0.000000 11.900002 -1.516600
					CHANNELS 3 Xrotation Yrotation Zrotation
					JOINT Spine2
					{
						OFFSET 0.000000 13.600006 -2.842500
						CHANNELS 3 Xrotation Yrotation Zrotation
						JOINT Neck_virtual
						{
							OFFSET 0.000000 0.000000 0.000000
							CHANNELS 3 Xrotation Yrotation Zrotation
							JOINT Neck
							{
								OFFSET 0.000000 9.624100 -2.890100
								CHANNELS 3 Xrotation Yrotation Zrotation
								JOINT Head
								{
									OFFSET 0.000000 14.068802 -1.351900
									CHANNELS 3 Xrotation Yrotation Zrotation
									End Site
									{
										OFFSET 0 0 0
									}
								}
							}
						}
						JOINT LeftShoulder_virtual
						{
							OFFSET 0.000000 0.000000 0.000000
							CHANNELS 3 Xrotation Yrotation Zrotation
							JOINT LeftShoulder
							{
								OFFSET 15.263000 10.923401 -0.547700
								CHANNELS 3 Xrotation Yrotation Zrotation
								JOINT LeftArm
								{
									OFFSET 25.438599 -2.830597 -13.032500
									CHANNELS 3 Xrotation Yrotation Zrotation
									JOINT LeftForeArm
									{
										OFFSET 29.960503 0.000000 0.000000
										CHANNELS 3 Xrotation Yrotation Zrotation
										JOINT LeftHand
										{
											OFFSET 27.849251 0.000000 0.000000
											CHANNELS 3 Xrotation Yrotation Zrotation
											End Site
											{
												OFFSET 0 0 0
											}
										}
									}
								}
							}
						}
						JOINT RightShoulder_virtual
						{
							OFFSET 0.000000 0.000000 0.000000
							CHANNELS 3 Xrotation Yrotation Zrotation
							JOINT RightShoulder
							{
								OFFSET -15.263000 10.923401 -0.547700
								CHANNELS 3 Xrotation Yrotation Zrotation
								JOINT RightArm
								{
									OFFSET -25.438599 -2.830597 -13.032500
									CHANNELS 3 Xrotation Yrotation Zrotation
									JOINT RightForeArm
									{
										OFFSET -29.960503 0.000000 0.000000
										CHANNELS 3 Xrotation Yrotation Zrotation
										JOINT RightHand
										{
											OFFSET -27.849251 0.000000 0.000000
											CHANNELS 3 Xrotation Yrotation Zrotation
											End Site
											{
												OFFSET 0 0 0
											}
										}
									}
								}
							}
						}
					}
				}
			}
		}
	}
}
MOTION
Frames: 10
Frame Time: 0.03333333
-4.319103 92.204185 0.518723 0.000000 0.000000 0.000000 3.860380 -58.162469 -2.799892 -37.543822 -2.645041 9.291970 35.525955 -1.350788 1.104244 -12.838025 -1.854679 -4.273558 0.000000 0.000000 0.000000 20.103844 -61.022809 16.522624 -22.411340 -24.912649 -15.286189 33.812916 4.994175 -4.399815 -16.222749 3.348448 7.218231 0.000000 0.000000 0.000000 -3.574579 -36.709613 -0.621657 -4.815942 -43.405207 -7.735021 7.236521 -0.652418 0.838021 1.756495 0.151265 0.794474 0.000000 0.000000 0.000000 2.191083 1.667960 -0.269844 -0.742909 1.835616 -0.497451 0.000000 0.000000 0.000000 2.513425 0.927517 1.027070 1.803676 1.081374 -3.986051 7.783003 -31.967095 -49.584551 21.909432 -65.758835 10.622540 0.000000 0.000000 0.000000 3.311139 -0.250601 1.368104 2.191281 5.685428 11.308005 5.009633 10.259450 52.713122 5.567298 60.134761 0.914059 0.000000 0.000000 0.000000 
-4.295682 92.203964 0.516104 0.000000 0.000000 0.000000 3.872443 -58.213702 -2.809300 -37.592658 -2.631557 9.307395 35.566950 -1.351246 1.152137 -12.784646 -1.878962 -4.208967 0.000000 0.000000 0.000000 20.210320 -61.380055 16.694878 -22.538689 -25.021029 -15.313469 33.716549 5.017651 -4.449578 -16.263884 3.406122 7.125310 0.000000 0.000000 0.000000 -3.613646 -36.945094 -0.619653 -4.662226 -43.094665 -7.768896 7.230610 -0.672311 0.812532 1.735959 0.172779 0.813923 0.000000 0.000000 0.000000 2.223494 1.637511 -0.277620 -0.734553 1.842978 -0.508065 0.000000 0.000000 0.000000 2.499231 0.907689 1.024654 1.810993 1.138748 -4.003859 7.897039 -32.386947 -49.468277 22.415508 -66.174144 11.031573 0.000000 0.000000 0.000000 3.325585 -0.237657 1.378642 2.251312 5.657353 11.352894 5.038515 9.963029 52.744449 5.391560 60.200727 1.066985 0.000000 0.000000 0.000000 
-4.252243 92.203110 0.511759 0.000000 0.000000 0.000000 3.857184 -58.278302 -2.853721 -37.706978 -2.599961 9.329821 35.649421 -1.353549 1.237900 -12.680284 -1.923986 -4.095244 0.000000 0.000000 0.000000 20.397296 -62.023930 17.009292 -22.782448 -25.215344 -15.362059 33.536253 5.056955 -4.531349 -16.342363 3.502890 6.967339 0.000000 0.000000 0.000000 -3.711111 -37.394794 -0.627463 -4.387444 -42.488264 -7.848050 7.226115 -0.703602 0.768810 1.703754 0.211096 0.849654 0.000000 0.000000 0.000000 2.277829 1.582462 -0.290809 -0.720575 1.855675 -0.527401 0.000000 0.000000 0.000000 2.484827 0.871611 1.020265 1.832062 1.247602 -4.032362 8.117334 -33.136362 -49.240347 23.369011 -66.933272 11.810930 0.000000 0.000000 0.000000 3.358536 -0.211620 1.398611 2.364308 5.608611 11.433404 5.087518 9.413356 52.809769 5.070426 60.323152 1.351918 0.000000 0.000000 0.000000 
-4.193198 92.200340 0.505423 0.000000 0.000000 0.000000 3.755210 -58.295303 -2.971756 -37.909032 -2.543052 9.345792 35.774154 -1.360200 1.344518 -12.528921 -1.983905 -3.958863 0.000000 0.000000 0.000000 20.621823 -62.834441 17.414290 -23.118935 -25.458195 -15.420008 33.294034 5.100041 -4.618526 -16.451368 3.610002 6.786910 0.000000 0.000000 0.000000 -3.894972 -38.020115 -0.662740 -4.044856 -41.621182 -7.986220 7.235060 -0.732748 0.717940 1.672495 0.258654 0.896242 0.000000 0.000000 0.000000 2.338449 1.513010 -0.305898 -0.704739 1.870814 -0.552369 0.000000 0.000000 0.000000 2.491067 0.825642 1.015325 1.876591 1.397757 -4.060168 8.428961 -34.067891 -48.913280 24.661826 -67.916314 12.884908 0.000000 0.000000 0.000000 3.415396 -0.172281 1.425865 2.517342 5.550924 11.535442 5.142814 8.681633 52.914329 4.653718 60.485662 1.733674 0.000000 0.000000 0.000000 
-4.121543 92.193100 0.494314 0.000000 0.000000 0.000000 3.517896 -58.204878 -3.194433 -38.210612 -2.454462 9.342064 35.942064 -1.373963 1.452787 -12.334812 -2.052156 -3.829854 0.000000 0.000000 0.000000 20.838711 -63.675846 17.850512 -23.510645 -25.708555 -15.471509 33.016335 5.135196 -4.688171 -16.582383 3.700627 6.622385 0.000000 0.000000 0.000000 -4.185855 -38.770637 -0.740105 -3.689492 -40.555577 -8.187759 7.269571 -0.746209 0.669730 1.651581 0.307922 0.947298 0.000000 0.000000 0.000000 2.392183 1.441229 -0.319842 -0.689557 1.886234 -0.579684 0.000000 0.000000 0.000000 2.535657 0.777551 1.012634 1.952442 1.577233 -4.076111 8.809192 -35.025224 -48.511572 26.151674 -68.989610 14.145962 0.000000 0.000000 0.000000 3.499095 -0.119580 1.457455 2.693642 5.496079 11.645991 5.190877 7.844640 53.066024 4.194327 60.668691 2.173479 0.000000 0.000000 0.000000 
-4.038435 92.177834 0.474931 0.000000 0.000000 0.000000 3.134170 -57.972276 -3.526776 -38.600968 -2.332316 9.310254 36.153892 -1.396423 1.546037 -12.101513 -2.122439 -3.733810 0.000000 0.000000 0.000000 21.014648 -64.429816 18.264008 -23.909694 -25.932227 -15.502585 32.728190 5.154616 -4.730343 -16.726776 3.759206 6.492882 0.000000 0.000000 0.000000 -4.584320 -39.588869 -0.864363 -3.361759 -39.381286 -8.441841 7.337039 -0.734623 0.628387 1.642819 0.353957 0.996527 0.000000 0.000000 0.000000 2.433933 1.378467 -0.331197 -0.674838 1.901525 -0.606669 0.000000 0.000000 0.000000 2.625730 0.734993 1.015974 2.060802 1.774606 -4.073130 9.224128 -35.883519 -48.073897 27.679938 -70.036186 15.464904 0.000000 0.000000 0.000000 3.607410 -0.053893 1.490008 2.875213 5.452705 11.756907 5.222974 6.965220 53.274851 3.733723 60.851392 2.639247 0.000000 0.000000 0.000000 
-3.944547 92.151276 0.447847 0.000000 0.000000 0.000000 2.637695 -57.603097 -3.942423 -39.046067 -2.181987 9.249076 36.409194 -1.426567 1.613320 -11.832147 -2.188897 -3.685943 0.000000 0.000000 0.000000 21.136031 -65.018606 18.615085 -24.266933 -26.107961 -15.507951 32.448723 5.155355 -4.750042 -16.877010 3.783989 6.393914 0.000000 0.000000 0.000000 -5.068602 -40.415903 -1.029513 -3.079931 -38.205251 -8.725533 7.437524 -0.694345 0.591090 1.641227 0.395502 1.038236 0.000000 0.000000 0.000000 2.467656 1.333341 -0.340329 -0.657911 1.917978 -0.631559 0.000000 0.000000 0.000000 2.756361 0.704381 1.028910 2.193985 1.980564 -4.049776 9.626038 -36.568163 -47.651351 29.089458 -70.973452 16.706037 0.000000 0.000000 0.000000 3.733050 0.023760 1.520059 3.045620 5.425043 11.864701 5.237827 6.082076 53.549991 3.295496 61.010856 3.110603 0.000000 0.000000 0.000000 
-3.841151 92.112137 0.421934 0.000000 0.000000 0.000000 2.090539 -57.142032 -4.394469 -39.499510 -2.016618 9.163675 36.704603 -1.460232 1.650465 -11.531011 -2.245943 -3.688910 0.000000 0.000000 0.000000 21.208439 -65.413050 18.882277 -24.543559 -26.228596 -15.494095 32.189616 5.137796 -4.762438 -17.026704 3.783144 6.303586 0.000000 0.000000 0.000000 -5.603296 -41.198909 -1.223504 -2.843716 -37.131429 -9.012267 7.564928 -0.626423 0.549875 1.640133 0.434243 1.067463 0.000000 0.000000 0.000000 2.502964 1.310682 -0.348985 -0.635229 1.937594 -0.653353 0.000000 0.000000 0.000000 2.914691 0.690479 1.053436 2.337120 2.188753 -4.008475 9.956162 -37.052810 -47.301044 30.242753 -71.756868 17.745950 0.000000 0.000000 0.000000 3.866458 0.111726 1.544100 3.192544 5.413395 11.967314 5.242253 5.210432 53.893430 2.888391 61.121205 3.576377 0.000000 0.000000 0.000000 
-3.729618 92.062279 0.414357 0.000000 0.000000 0.000000 1.555792 -56.656453 -4.833661 -39.918132 -1.854932 9.063411 37.032288 -1.490875 1.659177 -11.205379 -2.288322 -3.734567 0.000000 0.000000 0.000000 21.251512 -65.627791 19.064153 -24.720253 -26.298945 -15.475738 31.957427 5.103332 -4.785149 -17.169379 3.768171 6.194335 0.000000 0.000000 0.000000 -6.152701 -41.900106 -1.435080 -2.644859 -36.239423 -9.278710 7.711106 -0.534388 0.495721 1.636719 0.472950 1.080000 0.000000 0.000000 0.000000 2.550105 1.311449 -0.359739 -0.604259 1.961838 -0.671505 0.000000 0.000000 0.000000 3.086427 0.696511 1.089168 2.472790 2.396397 -3.952005 10.155426 -37.345760 -47.076034 31.040375 -72.374699 18.493439 0.000000 0.000000 0.000000 3.999874 0.208084 1.558451 3.309330 5.415648 12.060908 5.249914 4.350982 54.293085 2.515077 61.156954 4.027231 0.000000 0.000000 0.000000 
-3.609963 92.006783 0.445485 0.000000 0.000000 0.000000 1.076151 -56.213017 -5.222672 -40.273985 -1.716827 8.959204 37.380437 -1.511162 1.644976 -10.865849 -2.311427 -3.808248 0.000000 0.000000 0.000000 21.292374 -65.707492 19.179349 -24.799973 -26.332145 -15.467447 31.757962 5.053022 -4.831951 -17.296737 3.748861 6.043583 0.000000 0.000000 0.000000 -6.689380 -42.502211 -1.657307 -2.479249 -35.573626 -9.506692 7.870161 -0.422524 0.422359 1.634600 0.513578 1.072475 0.000000 0.000000 0.000000 2.616232 1.333258 -0.375560 -0.564656 1.990836 -0.685732 0.000000 0.000000 0.000000 3.261423 0.724386 1.133390 2.586596 2.604805 -3.880696 10.179752 -37.474400 -47.014494 31.434907 -72.838135 18.904352 0.000000 0.000000 0.000000 4.130496 0.311102 1.559351 3.395086 5.428904 12.138907 5.277997 3.503313 54.719852 2.180484 61.103514 4.448909 0.000000 0.000000 0.000000 
